# File created by Blade
# Date/Time:  Tue Jan 27 19:05:02 2015
# Frame Rate: 120.000 fps
#------------------------------------------------------
:FULLY-SPECIFIED
:DEGREES
2091
root -2.366419 31.693491 -4.964487 7.651971 7.828880 -5.505287
Spine -5.046087 -18.294154 3.480187
Head 26.950722 -10.296384 5.422231
LeftShoulder -13.730791 14.018710 17.169417
LeftArm 14.330825 -40.567188 -78.800809
LeftForeArm 1.887394 0.000000 92.470487
LeftHand -13.149581 -0.000000 25.094573
LeftHandThumb1 -26.253704 0.000000 33.147579
RightShoulder -18.426369 -6.789442 -7.561848
RightArm 3.936987 -23.007016 83.822246
RightForeArm -24.194765 -0.000000 16.288307
RightHand -14.230822 -0.000000 12.469009
RightHandThumb1 -24.326973 -0.000000 -32.862282
LeftUpLeg -13.089514 -11.794763 -2.532118
LeftLeg 22.261293 -0.000000 -0.000000
LeftFoot -25.744017 20.762033 -11.887298
LeftToeBase 10.581828 -0.000000 -0.000000
RightUpLeg -17.429913 20.858079 -5.521292
RightLeg 100.018271 -0.000000 -0.000000
RightFoot -6.970918 -12.257350 19.341803
RightToeBase 3.353037 -0.000000 -0.000000
2092
root -2.375721 31.698580 -4.970589 7.651069 7.856350 -5.514036
Spine -5.044087 -18.257751 3.445230
Head 26.988003 -10.334596 5.535004
LeftShoulder -13.789153 14.042780 17.152537
LeftArm 14.379627 -40.466937 -78.626724
LeftForeArm 1.879498 -0.000000 92.344973
LeftHand -13.167591 -0.000000 25.324357
LeftHandThumb1 -26.253704 0.000000 33.147579
RightShoulder -18.413533 -6.733238 -7.546941
RightArm 3.889299 -23.094512 83.859215
RightForeArm -24.087207 -0.000000 16.047544
RightHand -14.271966 -0.000000 12.991557
RightHandThumb1 -24.326973 -0.000000 -32.862282
LeftUpLeg -13.075311 -11.748776 -2.502919
LeftLeg 22.186558 -0.000000 -0.000000
LeftFoot -25.714995 20.680946 -11.914300
LeftToeBase 10.618495 -0.000000 -0.000000
RightUpLeg -17.605596 20.809592 -5.604439
RightLeg 99.976808 -0.000000 -0.000000
RightFoot -6.773835 -11.901642 19.330927
RightToeBase 2.980341 -0.000000 -0.000000
2093
root -2.385231 31.701821 -4.976232 7.655880 7.851275 -5.518419
Spine -5.054453 -18.225055 3.425010
Head 27.011467 -10.314128 5.582649
LeftShoulder -13.725472 14.004288 17.144849
LeftArm 14.073142 -40.506731 -78.188668
LeftForeArm 1.796259 -0.000000 92.307287
LeftHand -13.178474 -0.000000 25.430453
LeftHandThumb1 -26.253704 0.000000 33.147579
RightShoulder -18.405014 -6.805252 -7.532575
RightArm 3.962275 -23.147366 83.891607
RightForeArm -24.152431 0.000000 15.866294
RightHand -14.319653 0.000000 13.202116
RightHandThumb1 -24.326973 -0.000000 -32.862282
LeftUpLeg -13.068412 -11.706657 -2.479756
LeftLeg 22.128717 -0.000000 -0.000000
LeftFoot -25.707640 20.650188 -11.937333
LeftToeBase 10.666616 -0.000000 -0.000000
RightUpLeg -17.785552 20.732208 -5.679326
RightLeg 99.929315 -0.000000 -0.000000
RightFoot -6.766144 -11.757927 19.388365
RightToeBase 3.482690 -0.000000 -0.000000
2094
root -2.394472 31.703978 -4.980419 7.646300 7.813576 -5.526677
Spine -5.043436 -18.183599 3.393358
Head 27.010945 -10.275314 5.642258
LeftShoulder -13.769345 14.040829 17.108508
LeftArm 13.995297 -40.574877 -77.948488
LeftForeArm 1.646054 -0.000000 92.245462
LeftHand -13.095676 -0.000000 25.400550
LeftHandThumb1 -26.253704 0.000000 33.147579
RightShoulder -18.371004 -6.798131 -7.523836
RightArm 3.916256 -23.157818 83.939382
RightForeArm -24.184778 0.000000 15.807724
RightHand -14.345824 0.000000 13.164683
RightHandThumb1 -24.326973 -0.000000 -32.862282
LeftUpLeg -13.045845 -11.648842 -2.464094
LeftLeg 22.075446 -0.000000 -0.000000
LeftFoot -25.736913 20.644306 -11.999778
LeftToeBase 10.724501 -0.000000 -0.000000
RightUpLeg -17.960177 20.592983 -5.750081
RightLeg 99.889580 -0.000000 -0.000000
RightFoot -6.777735 -11.883067 19.184858
RightToeBase 2.923038 -0.000000 -0.000000
2095
root -2.401834 31.704685 -4.982817 7.628439 7.745153 -5.517079
Spine -5.021069 -18.133969 3.336815
Head 26.985419 -10.214428 5.706769
LeftShoulder -13.876048 14.140595 17.029128
LeftArm 14.069217 -40.645041 -77.822391
LeftForeArm 1.772263 -0.000000 92.218942
LeftHand -13.267000 -0.000000 25.452946
LeftHandThumb1 -26.253704 0.000000 33.147579
RightShoulder -18.329617 -6.800418 -7.510690
RightArm 3.854852 -23.116436 83.981004
RightForeArm -24.242217 0.000000 15.848845
RightHand -14.365786 -0.000000 13.117538
RightHandThumb1 -24.326973 -0.000000 -32.862282
LeftUpLeg -13.015057 -11.598373 -2.470247
LeftLeg 22.044463 -0.000000 -0.000000
LeftFoot -25.773785 20.645512 -12.090055
LeftToeBase 10.761911 -0.000000 -0.000000
RightUpLeg -18.118205 20.439729 -5.825197
RightLeg 99.840821 -0.000000 -0.000000
RightFoot -6.933436 -12.076970 19.105907
RightToeBase 3.258351 -0.000000 -0.000000
2096
root -2.409370 31.705279 -4.985672 7.606507 7.657255 -5.509750
Spine -4.983902 -18.063852 3.279717
Head 26.931027 -10.139441 5.758351
LeftShoulder -13.987407 14.254907 16.883764
LeftArm 14.020787 -40.686125 -77.488129
LeftForeArm 1.597262 0.000000 92.271480
LeftHand -13.377478 -0.000000 25.472918
LeftHandThumb1 -26.253704 0.000000 33.147579
RightShoulder -18.301162 -6.851856 -7.481146
RightArm 3.836970 -23.075501 83.992568
RightForeArm -24.209152 0.000000 15.978908
RightHand -14.367382 -0.000000 13.012883
RightHandThumb1 -24.326973 -0.000000 -32.862282
LeftUpLeg -12.973336 -11.528530 -2.478377
LeftLeg 21.998007 -0.000000 -0.000000
LeftFoot -25.800511 20.645637 -12.178921
LeftToeBase 10.743109 -0.000000 -0.000000
RightUpLeg -18.272488 20.192594 -5.884287
RightLeg 99.767109 -0.000000 -0.000000
RightFoot -7.105012 -12.572043 18.828890
RightToeBase 3.274710 -0.000000 -0.000000
2097
root -2.417199 31.704777 -4.986914 7.560034 7.533120 -5.497751
Spine -4.911509 -17.981388 3.199802
Head 26.859389 -10.048993 5.805209
LeftShoulder -14.109076 14.354780 16.778291
LeftArm 13.990273 -40.788921 -77.255562
LeftForeArm 1.531528 -0.000000 92.300878
LeftHand -13.384385 -0.000000 25.433935
LeftHandThumb1 -26.253704 0.000000 33.147579
RightShoulder -18.274813 -6.875656 -7.458961
RightArm 3.796606 -23.053568 83.998449
RightForeArm -24.134736 0.000000 16.165138
RightHand -14.316578 -0.000000 12.929906
RightHandThumb1 -24.326973 -0.000000 -32.862282
LeftUpLeg -12.898501 -11.412468 -2.502278
LeftLeg 21.942522 -0.000000 -0.000000
LeftFoot -25.763627 20.731158 -12.143252
LeftToeBase 10.634851 -0.000000 -0.000000
RightUpLeg -18.401566 19.896862 -5.919437
RightLeg 99.704083 -0.000000 -0.000000
RightFoot -7.432787 -13.222594 18.645978
RightToeBase 3.225894 -0.000000 -0.000000
2098
root -2.423293 31.703813 -4.987721 7.506793 7.379678 -5.474717
Spine -4.828303 -17.880108 3.105524
Head 26.778947 -9.951815 5.840564
LeftShoulder -14.221521 14.429689 16.670977
LeftArm 13.878985 -40.948712 -77.011133
LeftForeArm 1.374580 -0.000000 92.368681
LeftHand -13.347846 -0.000000 25.386372
LeftHandThumb1 -26.253704 0.000000 33.147579
RightShoulder -18.221679 -6.867995 -7.442871
RightArm 3.700434 -22.967920 84.002605
RightForeArm -24.006104 -0.000000 16.443003
RightHand -14.282801 -0.000000 12.677896
RightHandThumb1 -24.326973 -0.000000 -32.862282
LeftUpLeg -12.817761 -11.296698 -2.540564
LeftLeg 21.910348 -0.000000 -0.000000
LeftFoot -25.829441 20.739107 -12.263568
LeftToeBase 10.685137 -0.000000 -0.000000
RightUpLeg -18.524401 19.526504 -5.943497
RightLeg 99.638717 -0.000000 -0.000000
RightFoot -7.741781 -14.012337 18.289966
RightToeBase 3.184245 -0.000000 -0.000000
